<svg id="Layer_1" data-name="Layer 1" xmlns="http://www.w3.org/2000/svg" viewBox="0 0 1280 1280"><defs><style>.cls-1{fill:#eee6dd;}.cls-2{fill:#7ebdc2;}.cls-3{fill:#76aeaf;}.cls-4{fill:#bc4430;}.cls-5{fill:#f2b2aa;}.cls-6,.cls-7,.cls-8,.cls-9{fill:none;stroke:#bc4430;stroke-miterlimit:10;}.cls-6{stroke-width:18.12px;}.cls-7{stroke-width:17.99px;}.cls-8{stroke-width:18.63px;}.cls-9{stroke-width:8.74px;}</style></defs><rect class="cls-1" width="1280" height="1280"/><polygon class="cls-1" points="606.29 454.44 635.56 1092.3 778.68 1060.3 796.73 1053.43 818.01 781.54 901.36 692.99 906.63 615.59 881.83 515.69 849.4 423.75 606.29 454.44"/><polyline class="cls-2" points="71.71 1280 98.96 1211.49 415.43 1060.78 559.93 1118.57 665.04 1127.82 756.46 1111.27 847.43 1077.84 849.4 1053.43 1200.14 1225.37 1212.7 1280 81.72 1280"/><polygon class="cls-3" points="81.72 1280 98.96 1211.49 407.1 1064.75 595.35 1121.69 635.35 1125.21 635.35 1280 81.72 1280"/><rect class="cls-4" x="165.38" y="1064.79" width="19.61" height="199.08" transform="translate(1151.05 505.51) rotate(64.53)"/><polygon class="cls-4" points="101.02 1203.3 98.96 1211.49 81.72 1280 60.51 1280 81.09 1198.28 81.1 1198.28 101.02 1203.3"/><rect class="cls-4" x="1097.02" y="1071.37" width="19.61" height="198.86" transform="translate(2639.8 674.97) rotate(115.47)"/><polygon class="cls-4" points="1219.79 1280 1212.7 1280 1198.6 1280 1182.97 1217.93 1180.91 1209.73 1200.8 1204.72 1200.84 1204.71 1219.79 1280"/><polygon class="cls-5" points="636.08 490.44 637.26 979.95 558.24 984.78 414.27 800.73 390.94 490.44 636.08 490.44"/><polygon class="cls-5" points="635.56 1092.3 480.27 1054.59 480.27 878.76 635.56 878.76 635.56 1092.3"/><rect class="cls-5" x="368.03" y="585.04" width="39.07" height="107.95"/><rect class="cls-5" x="862.29" y="585.04" width="39.07" height="107.95"/><rect class="cls-4" x="480.27" y="738.12" width="146.79" height="32.62"/><rect class="cls-4" x="463.96" y="770.74" width="32.62" height="32.62"/><rect class="cls-4" x="537.02" y="789.69" width="197.08" height="16.31"/><polygon class="cls-4" points="709.06 709.6 636.33 716.13 563.61 709.6 563.61 690 636.33 698.09 709.06 690 709.06 709.6"/><rect class="cls-4" x="550.13" y="676.62" width="19.6" height="30.51" transform="translate(-325.23 598.58) rotate(-45)"/><rect class="cls-4" x="702.75" y="676.62" width="19.6" height="30.51" transform="translate(727.17 1684.96) rotate(-135)"/><rect class="cls-4" x="587.9" y="844.97" width="96.24" height="67.58"/><polygon class="cls-4" points="683.33 984.78 558.24 984.78 587.09 912.55 683.33 912.55 683.33 984.78"/><path class="cls-6" d="M871.5,577.23h0a35,35,0,0,1,35,35v56.61a35,35,0,0,1-35,35h0a0,0,0,0,1,0,0V577.23A0,0,0,0,1,871.5,577.23Z"/><path class="cls-6" d="M363.92,577.23h0a35,35,0,0,1,35,35v56.61a35,35,0,0,1-35,35h0a0,0,0,0,1,0,0V577.23A0,0,0,0,1,363.92,577.23Z" transform="translate(762.85 1281.07) rotate(-180)"/><polyline class="cls-6" points="871.5 703.84 841.32 798.76 734.1 948.66"/><polyline class="cls-6" points="398.93 704.91 421.2 798.76 545.51 956.17"/><line class="cls-7" x1="796.73" y1="861.1" x2="796.73" y2="1053.43"/><line class="cls-6" x1="471.46" y1="861.1" x2="471.46" y2="1048.63"/><circle class="cls-8" cx="377.14" cy="723.64" r="20.52"/><circle class="cls-8" cx="889" cy="721.69" r="20.52"/><path class="cls-7" d="M445.75,1029.37s182.75,136.15,379.34,4.46"/><path class="cls-7" d="M862.29,1060.29c-230.35,154.31-453.87-4.13-453.87-4.13"/><rect class="cls-5" x="636.33" y="729.97" width="7.03" height="40.77"/><rect class="cls-5" x="390.94" y="454.44" width="430.7" height="39.27"/><rect class="cls-5" x="636.33" y="454.44" width="225.96" height="70.34"/><polygon class="cls-5" points="795.92 466.84 806.53 477.48 766.37 518.29 862.29 609.31 862.29 466.84 795.92 466.84"/><rect class="cls-4" x="454.88" y="542.71" width="114.17" height="17.94"/><rect class="cls-4" x="445.89" y="546.43" width="17.94" height="17.94" transform="translate(525.95 -158.96) rotate(45)"/><rect class="cls-4" x="564.51" y="544.59" width="17.94" height="30.51" transform="translate(-227.9 569.49) rotate(-45)"/><rect class="cls-5" x="636.33" y="524.78" width="165.04" height="17.93"/><circle class="cls-4" cx="589.76" cy="323.52" r="172.37"/><circle class="cls-4" cx="783.68" cy="361.9" r="146.89"/><circle class="cls-4" cx="663.09" cy="315.29" r="173.7"/><circle class="cls-4" cx="496.58" cy="343.5" r="145.52"/><circle class="cls-4" cx="390.94" cy="437.69" r="70.71"/><circle class="cls-4" cx="759.07" cy="278.18" r="100.01"/><circle class="cls-4" cx="373.28" cy="532.44" r="41.57"/><circle class="cls-4" cx="889" cy="532.44" r="41.57"/><circle class="cls-4" cx="874.21" cy="574.01" r="24.8"/><circle class="cls-4" cx="383.5" cy="573.17" r="24.8"/><circle class="cls-4" cx="382.3" cy="620.24" r="24.8"/><circle class="cls-4" cx="881.83" cy="615.59" r="24.8"/><circle class="cls-4" cx="881.83" cy="454.44" r="69.45"/><circle class="cls-4" cx="643.37" cy="423.75" r="100.23"/><circle class="cls-4" cx="526.96" cy="437.69" r="78"/><circle class="cls-4" cx="434.62" cy="444.98" r="78"/><circle class="cls-4" cx="743.04" cy="415.71" r="78"/><rect class="cls-4" x="725.94" y="781.54" width="16.31" height="16.31"/><rect class="cls-4" x="529.2" y="781.54" width="16.31" height="16.31"/><polygon class="cls-5" points="849.4 596.16 862.29 703.84 862.29 609.31 849.4 596.16"/><path class="cls-4" d="M568.07,984.78c-2.83-1.65-71.49-84-71.49-84H777.33l-80.9,82.37Z"/><polygon class="cls-4" points="539.16 961.62 551.35 952.01 561.68 961.62 539.16 961.62"/><polygon class="cls-4" points="741.65 954.01 728.14 944.4 716.68 954.01 741.65 954.01"/><path class="cls-5" d="M485.73,503.91s-11.07-6.89-14.7-13c0,0,2.53,10.26,10.42,17.52Z"/><path class="cls-5" d="M716.34,492.47Z"/><circle class="cls-4" cx="515.08" cy="573.17" r="26.83"/><polygon class="cls-5" points="636.33 542.71 703.85 609.31 760.93 609.31 804.67 609.31 839.72 574.01 802.38 550.19 768.2 530.96 636.33 542.71"/><rect class="cls-4" x="703.85" y="542.71" width="114.17" height="17.94"/><rect class="cls-4" x="690.41" y="544.59" width="17.94" height="30.51" transform="translate(798.05 1450.25) rotate(-135)"/><rect class="cls-4" x="809.04" y="546.42" width="17.94" height="17.94" transform="translate(-153.13 741.09) rotate(-45)"/><circle class="cls-4" cx="759.07" cy="573.17" r="26.83"/><polygon class="cls-5" points="862.29 703.84 806.47 770.74 759.07 897.62 833.81 794.22 862.29 703.84"/><polygon class="cls-4" points="538.39 961.76 558.24 984.78 575.25 984.78 546.35 953.77 538.39 961.76"/><polygon class="cls-4" points="677.24 984.82 719.68 984.54 741.65 954.01 716.68 954.01 677.24 984.82"/><path class="cls-4" d="M458.44,1040.28l-43,20.5-151.86,72.34q-8.74-6.6-17.27-13.52l203.69-97,6.74,14.15Z"/><path class="cls-4" d="M1033.7,1125q-8.7,6.88-17.65,13.43L856.48,1064.1,813.32,1044l1.68-3.64,6.6-14.16Z"/><circle class="cls-4" cx="619" cy="729.97" r="8.28"/><path class="cls-9" d="M622.36,707.27s-9.2,7.85-6.06,20.33"/><path class="cls-9" d="M645.55,710.18s9.21,7.85,6.07,20.33"/><circle class="cls-4" cx="652.27" cy="730.86" r="11.69"/><circle class="cls-4" cx="617.54" cy="731.33" r="11.69"/><rect class="cls-4" x="643.37" y="738.12" width="146.79" height="32.62" transform="translate(1433.52 1508.86) rotate(-180)"/><rect class="cls-4" x="773.85" y="770.74" width="32.62" height="32.62" transform="translate(1580.31 1574.1) rotate(-180)"/></svg>